<?xml version="1.0" encoding="utf-8"?>
<!-- Generator: Adobe Illustrator 20.0.0, SVG Export Plug-In . SVG Version: 6.00 Build 0)  -->
<svg version="1.1" id="Layer_1" xmlns="http://www.w3.org/2000/svg" xmlns:xlink="http://www.w3.org/1999/xlink" x="0px" y="0px"
	 viewBox="0 0 90 65" style="enable-background:new 0 0 90 65;" xml:space="preserve">
<style type="text/css">
	.st0{fill:#00F2DF;}
</style>
<g>
	<path class="st0" d="M24.2,14H2.6C0.9,14,0,14,0,15.7V65h27V15.7C27,14,25.9,14,24.2,14z M8,52H3v-5h5V52z M8,43H3v-5h5V43z M8,33
		H3v-5h5V33z M16,52h-5v-5h5V52z M16,43h-5v-5h5V43z M16,23h-5v-5h5V23z M24,43h-5v-5h5V43z M24,33h-5v-5h5V33z M24,23h-5v-5h5V23z"
		/>
	<path class="st0" d="M57.7,0H33.2C31.5,0,30,0.5,30,2.2V65h31V2.2C61,0.5,59.4,0,57.7,0z M39,48h-3v-7h3V48z M39,24h-3v-7h3V24z
		 M39,14h-3V6h3V14z M47,48h-3v-7h3V48z M47,36h-3v-8h3V36z M47,14h-3V6h3V14z M55,48h-3v-7h3V48z M55,36h-3v-8h3V36z M55,24h-3v-7
		h3V24z M55,14h-3V6h3V14z"/>
	<path class="st0" d="M86.9,36H67.4c-1.7,0-3.4,0.1-3.4,1.7V65h26V37.7C90,36.1,88.5,36,86.9,36z M72,50h-5v-4h5V50z M72,44h-5v-4h5
		V44z M80,50h-6v-4h6V50z M87,50h-5v-4h5V50z M80,56h-6v-4h6V56z M87,56h-5v-4h5V56z M80,44h-6v-4h6V44z"/>
</g>
</svg>
